<svg width="31" height="36" viewBox="0 0 31 36" fill="none" xmlns="http://www.w3.org/2000/svg">
<mask id="mask0_22_177" style="mask-type:alpha" maskUnits="userSpaceOnUse" x="0" y="0" width="31" height="36">
<path d="M30.7367 10.6256C30.7178 9.11476 30.4781 7.61592 30.0192 6.20291C29.2161 3.79 27.5808 1.88203 25.5106 0.947999C24.3137 0.423107 23.0482 0.141701 21.7674 0.109768C20.1201 0.0239496 19.5978 0 15.4163 0C11.2347 0 10.6988 1.33828e-07 9.06347 0.109768C7.78434 0.141701 6.51892 0.423107 5.32198 0.947999C3.25175 1.88203 1.61475 3.79 0.813366 6.20291C0.363018 7.59796 0.119864 9.07285 0.0958916 10.5637C0.0222605 12.4856 0 13.0944 0 17.9681C0 22.8418 -1.2758e-08 23.4645 0.0958916 25.3724C0.121577 26.8653 0.363018 28.3382 0.813366 29.7372C1.61646 32.1481 3.25175 34.0561 5.3237 34.9901C6.51549 35.533 7.78092 35.8403 9.06518 35.8882C10.7142 35.9741 11.2364 36 15.418 36C19.5996 36 20.1355 36 21.7708 35.8882C23.0499 35.8583 24.3154 35.5769 25.514 35.052C27.5842 34.116 29.2195 32.208 30.0226 29.7971C30.473 28.4 30.7144 26.9272 30.7401 25.4323C30.8137 23.5124 30.836 22.9037 30.836 18.0279C30.8326 13.1542 30.8326 12.5355 30.7367 10.6256ZM15.406 27.1846C11.0327 27.1846 7.48982 23.0553 7.48982 17.9581C7.48982 12.8609 11.0327 8.73157 15.406 8.73157C19.7759 8.73157 23.3222 12.8609 23.3222 17.9581C23.3222 23.0553 19.7759 27.1846 15.406 27.1846ZM23.6373 10.5417C22.615 10.5417 21.7914 9.57978 21.7914 8.39029C21.7914 7.2008 22.615 6.23883 23.6373 6.23883C24.6561 6.23883 25.4815 7.2008 25.4815 8.39029C25.4815 9.57978 24.6561 10.5417 23.6373 10.5417Z" fill="black"/>
<path d="M15.4061 23.9518C18.2461 23.9518 20.5483 21.2685 20.5483 17.9584C20.5483 14.6484 18.2461 11.9651 15.4061 11.9651C12.5662 11.9651 10.2639 14.6484 10.2639 17.9584C10.2639 21.2685 12.5662 23.9518 15.4061 23.9518Z" fill="black"/>
</mask>
<g mask="url(#mask0_22_177)">
<rect x="-9.66797" y="-35.1611" width="140.468" height="99.44" fill="white"/>
</g>
</svg>
