<svg width="112" height="44" viewBox="0 0 112 44" fill="none" xmlns="http://www.w3.org/2000/svg">
<path d="M7.90514 11.882C8.60514 10.79 9.57114 9.908 10.8031 9.236C12.0351 8.564 13.4771 8.228 15.1291 8.228C17.0611 8.228 18.8111 8.718 20.3791 9.698C21.9471 10.678 23.1791 12.078 24.0751 13.898C24.9991 15.718 25.4611 17.832 25.4611 20.24C25.4611 22.648 24.9991 24.776 24.0751 26.624C23.1791 28.444 21.9471 29.858 20.3791 30.866C18.8111 31.846 17.0611 32.336 15.1291 32.336C13.5051 32.336 12.0631 32 10.8031 31.328C9.57114 30.656 8.60514 29.788 7.90514 28.724V43.172H0.723141V8.564H7.90514V11.882ZM18.1531 20.24C18.1531 18.448 17.6491 17.048 16.6411 16.04C15.6611 15.004 14.4431 14.486 12.9871 14.486C11.5591 14.486 10.3411 15.004 9.33314 16.04C8.35314 17.076 7.86314 18.49 7.86314 20.282C7.86314 22.074 8.35314 23.488 9.33314 24.524C10.3411 25.56 11.5591 26.078 12.9871 26.078C14.4151 26.078 15.6331 25.56 16.6411 24.524C17.6491 23.46 18.1531 22.032 18.1531 20.24ZM36.411 0.92V32H29.229V0.92H36.411ZM40.1877 20.24C40.1877 17.832 40.6357 15.718 41.5317 13.898C42.4557 12.078 43.7017 10.678 45.2697 9.698C46.8377 8.718 48.5877 8.228 50.5197 8.228C52.1717 8.228 53.6137 8.564 54.8457 9.236C56.1057 9.908 57.0717 10.79 57.7437 11.882V8.564H64.9257V32H57.7437V28.682C57.0437 29.774 56.0637 30.656 54.8037 31.328C53.5717 32 52.1297 32.336 50.4777 32.336C48.5737 32.336 46.8377 31.846 45.2697 30.866C43.7017 29.858 42.4557 28.444 41.5317 26.624C40.6357 24.776 40.1877 22.648 40.1877 20.24ZM57.7437 20.282C57.7437 18.49 57.2397 17.076 56.2317 16.04C55.2517 15.004 54.0477 14.486 52.6197 14.486C51.1917 14.486 49.9737 15.004 48.9657 16.04C47.9857 17.048 47.4957 18.448 47.4957 20.24C47.4957 22.032 47.9857 23.46 48.9657 24.524C49.9737 25.56 51.1917 26.078 52.6197 26.078C54.0477 26.078 55.2517 25.56 56.2317 24.524C57.2397 23.488 57.7437 22.074 57.7437 20.282ZM84.4016 8.312C87.1456 8.312 89.3296 9.208 90.9536 11C92.6056 12.764 93.4316 15.2 93.4316 18.308V32H86.2916V19.274C86.2916 17.706 85.8856 16.488 85.0736 15.62C84.2616 14.752 83.1696 14.318 81.7976 14.318C80.4256 14.318 79.3336 14.752 78.5216 15.62C77.7096 16.488 77.3036 17.706 77.3036 19.274V32H70.1216V8.564H77.3036V11.672C78.0316 10.636 79.0116 9.824 80.2436 9.236C81.4756 8.62 82.8616 8.312 84.4016 8.312ZM111.484 25.91V32H107.83C105.226 32 103.196 31.37 101.74 30.11C100.284 28.822 99.5564 26.736 99.5564 23.852V14.528H96.7004V8.564H99.5564V2.852H106.738V8.564H111.442V14.528H106.738V23.936C106.738 24.636 106.906 25.14 107.242 25.448C107.578 25.756 108.138 25.91 108.922 25.91H111.484Z" fill="#0F622B"/>
</svg>
