<svg width="33" height="36" viewBox="0 0 33 36" fill="none" xmlns="http://www.w3.org/2000/svg">
<path fill-rule="evenodd" clip-rule="evenodd" d="M32.2428 2.43769C32.4722 1.03253 32.2428 0 31.1511 0H27.5409C26.6229 0 26.1997 0.891952 25.9702 1.8755C25.9702 1.8755 24.1342 10.0956 21.5333 15.435C20.692 16.9807 20.3095 17.4726 19.8505 17.4726C19.621 17.4726 19.2767 16.9807 19.2767 15.5757V2.43769C19.2767 0.7515 19.0225 0 18.2574 0H12.5842C12.0106 0 11.6656 0.782589 11.6656 1.52429C11.6656 3.12277 12.9659 3.49141 13.0999 7.98791V17.7537C13.0999 19.8946 12.8894 20.2829 12.4305 20.2829C11.2066 20.2829 8.22948 12.0261 6.46379 2.57814C6.11775 0.741781 5.77069 0 4.84802 0H1.2378C0.206311 0 0 0.891952 0 1.8755C0 3.63199 1.22395 12.3439 5.69889 23.8659C8.68216 31.7345 12.8854 36 16.7101 36C19.005 36 19.2889 35.0527 19.2889 33.4209V27.4737C19.2889 25.579 19.5063 25.2008 20.233 25.2008C20.7684 25.2008 21.6864 25.6927 23.8282 29.4866C26.2761 33.983 26.6797 36 28.0565 36H31.6668C32.6982 36 33.214 35.0527 32.9164 33.183C32.5908 31.3197 31.4222 28.6164 29.8715 25.4116C29.03 23.5849 27.7677 21.6177 27.3852 20.6339C26.8498 19.3695 27.0028 18.8074 27.3852 17.6835C27.3852 17.6835 31.7838 6.30172 32.2428 2.43769Z" fill="white"/>
</svg>
